<?xml version="1.0" encoding="utf-8"?>
<!-- Generator: Adobe Illustrator 16.0.0, SVG Export Plug-In . SVG Version: 6.00 Build 0)  -->
<!DOCTYPE svg PUBLIC "-//W3C//DTD SVG 1.1//EN" "http://www.w3.org/Graphics/SVG/1.1/DTD/svg11.dtd">
<svg version="1.1" id="Layer_1" xmlns="http://www.w3.org/2000/svg" xmlns:xlink="http://www.w3.org/1999/xlink" x="0px" y="0px"
	 width="1417.32px" height="1417.32px" viewBox="0 0 1417.32 1417.32" enable-background="new 0 0 1417.32 1417.32"
	 xml:space="preserve">
<path d="M1165.15,453.871c0-251.705-204.774-456.49-456.502-456.49C456.944-2.608,252.17,202.167,252.17,453.871v61.081h122.162
	v-61.081c0-184.342,149.975-334.329,334.329-334.329S1043,269.518,1043,453.871S893.014,788.2,708.66,788.2h-70.151l136.119-136.108
	l-86.366-86.366L491.787,762.144l-86.434,86.344l0.045,0.045l-0.034,0.034l86.365,86.365l196.486,196.407l86.389-86.366
	L640.005,910.361h68.655C960.376,910.361,1165.15,705.576,1165.15,453.871z"/>
</svg>
